#Comment line ignore any data following # character 
#Hierarchical Translation and Rotation (.htr) file 
[Header]	
#Header keywords are followed by a single value 
FileType HTR		#Single word string
DataType HTRS		#Translation followed by rotation and scale data
FileVersion 1		#integer
NumSegments 84		#integer
NumFrames 2		#integer
DataFrameRate 30		#integer, data frame rate in this file
EulerRotationOrder ZYX
CalibrationUnits mm
RotationUnits Degrees
GlobalAxisofGravity Y
BoneLengthAxis Y
ScaleFactor 1.00
[SegmentNames&Hierarchy]
#CHILD	PARENT
MASTER GLOBAL
root MASTER
chest root
L_mid_tent01 root
R_mid_tent01 root
spine01 root
Bip01_Neck chest
L_humerus chest
R_humerus chest
weapon_bone chest
Bip01_Head Bip01_Neck
eye_left_bone Bip01_Head
eye_right_bone Bip01_Head
L_forearm L_humerus
L_front_hand L_forearm
L_weapon_bone L_forearm
L_front_hand01_01 L_front_hand
L_front_hand02_01 L_front_hand
L_front_hand03_01 L_front_hand
L_front_hand01_02 L_front_hand01_01
L_front_hand02_02 L_front_hand02_01
L_front_hand03_02 L_front_hand03_01
R_forearm R_humerus
R_front_hand R_forearm
R_weapon_bone R_forearm
R_front_hand01_01 R_front_hand
R_front_hand02_01 R_front_hand
R_front_hand03_01 R_front_hand
R_front_hand01_02 R_front_hand01_01
R_front_hand02_02 R_front_hand02_01
R_front_hand03_02 R_front_hand03_01
null_rope01_connect L_mid_tent01
Rope1_Seg01 null_rope01_connect
Rope1_Seg02 Rope1_Seg01
Rope1_Seg03 Rope1_Seg02
Rope1_Seg04 Rope1_Seg03
Rope1_Seg05 Rope1_Seg04
Rope1_Seg06 Rope1_Seg05
Rope1_Seg07 Rope1_Seg06
Rope1_Seg09 Rope1_Seg07
L_mid_hand01 Rope1_Seg09
L_mid_hand02 Rope1_Seg09
L_mid_hand03 Rope1_Seg09
null_rope02_connect R_mid_tent01
Rope2_Seg01 null_rope02_connect
Rope2_Seg02 Rope2_Seg01
Rope2_Seg03 Rope2_Seg02
Rope2_Seg04 Rope2_Seg03
Rope2_Seg05 Rope2_Seg04
Rope2_Seg06 Rope2_Seg05
Rope2_Seg07 Rope2_Seg06
Rope2_Seg09 Rope2_Seg07
R_mid_hand01 Rope2_Seg09
R_mid_hand02 Rope2_Seg09
R_mid_hand03 Rope2_Seg09
spine02 spine01
spine03 spine02
pelvis spine03
null_rope03_connect pelvis
null_rope04_connect pelvis
Rope3_Seg01 null_rope03_connect
Rope3_Seg02 Rope3_Seg01
Rope3_Seg03 Rope3_Seg02
Rope3_Seg04 Rope3_Seg03
Rope3_Seg05 Rope3_Seg04
Rope3_Seg06 Rope3_Seg05
Rope3_Seg07 Rope3_Seg06
Rope3_Seg08 Rope3_Seg07
Rope3_Seg09 Rope3_Seg08
R_rear_hand01 Rope3_Seg09
R_rear_hand02 Rope3_Seg09
R_rear_hand03 Rope3_Seg09
Rope4_Seg01 null_rope04_connect
Rope4_Seg02 Rope4_Seg01
Rope4_Seg03 Rope4_Seg02
Rope4_Seg04 Rope4_Seg03
Rope4_Seg05 Rope4_Seg04
Rope4_Seg06 Rope4_Seg05
Rope4_Seg07 Rope4_Seg06
Rope4_Seg08 Rope4_Seg07
Rope4_Seg09 Rope4_Seg08
L_rear_hand01 Rope4_Seg09
L_rear_hand02 Rope4_Seg09
L_rear_hand03 Rope4_Seg09
[BasePosition]
#SegmentName Tx, Ty, Tz, Rx, Ry, Rz, BoneLength
MASTER 0.000000 0.000000 0.000000 -90.000000 0.000000 0.000000 10.000000 
root 0.000000 0.000000 0.000000 0.000000 0.000000 0.000000 10.000000 
chest 0.000000 0.000000 0.000000 0.000000 0.000000 0.000000 10.000000 
L_mid_tent01 0.000000 0.000000 0.000000 0.000000 0.000000 0.000000 10.000000 
R_mid_tent01 0.000000 0.000000 0.000000 0.000000 0.000000 0.000000 10.000000 
spine01 0.000000 0.000000 0.000000 0.000000 0.000000 0.000000 10.000000 
Bip01_Neck 0.000000 0.000000 0.000000 0.000000 0.000000 0.000000 10.000000 
L_humerus 0.000000 0.000000 0.000000 0.000000 0.000000 0.000000 10.000000 
R_humerus 0.000000 0.000000 0.000000 0.000000 0.000000 0.000000 10.000000 
weapon_bone 0.000000 0.000000 0.000000 0.000000 0.000000 0.000000 10.000000 
Bip01_Head 0.000000 0.000000 0.000000 0.000000 0.000000 0.000000 10.000000 
eye_left_bone 0.000000 0.000000 0.000000 0.000000 0.000000 0.000000 10.000000 
eye_right_bone 0.000000 0.000000 0.000000 0.000000 0.000000 0.000000 10.000000 
L_forearm 0.000000 0.000000 0.000000 0.000000 0.000000 0.000000 10.000000 
L_front_hand 0.000000 0.000000 0.000000 0.000000 0.000000 0.000000 10.000000 
L_weapon_bone 0.000000 0.000000 0.000000 0.000000 0.000000 0.000000 10.000000 
L_front_hand01_01 0.000000 0.000000 0.000000 0.000000 0.000000 0.000000 10.000000 
L_front_hand02_01 0.000000 0.000000 0.000000 0.000000 0.000000 0.000000 10.000000 
L_front_hand03_01 0.000000 0.000000 0.000000 0.000000 0.000000 0.000000 10.000000 
L_front_hand01_02 0.000000 0.000000 0.000000 0.000000 0.000000 0.000000 10.000000 
L_front_hand02_02 0.000000 0.000000 0.000000 0.000000 0.000000 0.000000 10.000000 
L_front_hand03_02 0.000000 0.000000 0.000000 0.000000 0.000000 0.000000 10.000000 
R_forearm 0.000000 0.000000 0.000000 0.000000 0.000000 0.000000 10.000000 
R_front_hand 0.000000 0.000000 0.000000 0.000000 0.000000 0.000000 10.000000 
R_weapon_bone 0.000000 0.000000 0.000000 0.000000 0.000000 0.000000 10.000000 
R_front_hand01_01 0.000000 0.000000 0.000000 0.000000 0.000000 0.000000 10.000000 
R_front_hand02_01 0.000000 0.000000 0.000000 0.000000 0.000000 0.000000 10.000000 
R_front_hand03_01 0.000000 0.000000 0.000000 0.000000 0.000000 0.000000 10.000000 
R_front_hand01_02 0.000000 0.000000 0.000000 0.000000 0.000000 0.000000 10.000000 
R_front_hand02_02 0.000000 0.000000 0.000000 0.000000 0.000000 0.000000 10.000000 
R_front_hand03_02 0.000000 0.000000 0.000000 0.000000 0.000000 0.000000 10.000000 
null_rope01_connect 0.000000 0.000000 0.000000 0.000000 0.000000 0.000000 10.000000 
Rope1_Seg01 0.000000 0.000000 0.000000 0.000000 0.000000 0.000000 10.000000 
Rope1_Seg02 0.000000 0.000000 0.000000 0.000000 0.000000 0.000000 10.000000 
Rope1_Seg03 0.000000 0.000000 0.000000 0.000000 0.000000 0.000000 10.000000 
Rope1_Seg04 0.000000 0.000000 0.000000 0.000000 0.000000 0.000000 10.000000 
Rope1_Seg05 0.000000 0.000000 0.000000 0.000000 0.000000 0.000000 10.000000 
Rope1_Seg06 0.000000 0.000000 0.000000 0.000000 0.000000 0.000000 10.000000 
Rope1_Seg07 0.000000 0.000000 0.000000 0.000000 0.000000 0.000000 10.000000 
Rope1_Seg09 0.000000 0.000000 0.000000 0.000000 0.000000 0.000000 10.000000 
L_mid_hand01 0.000000 0.000000 0.000000 0.000000 0.000000 0.000000 10.000000 
L_mid_hand02 0.000000 0.000000 0.000000 0.000000 0.000000 0.000000 10.000000 
L_mid_hand03 0.000000 0.000000 0.000000 0.000000 0.000000 0.000000 10.000000 
null_rope02_connect 0.000000 0.000000 0.000000 0.000000 0.000000 0.000000 10.000000 
Rope2_Seg01 0.000000 0.000000 0.000000 0.000000 0.000000 0.000000 10.000000 
Rope2_Seg02 0.000000 0.000000 0.000000 0.000000 0.000000 0.000000 10.000000 
Rope2_Seg03 0.000000 0.000000 0.000000 0.000000 0.000000 0.000000 10.000000 
Rope2_Seg04 0.000000 0.000000 0.000000 0.000000 0.000000 0.000000 10.000000 
Rope2_Seg05 0.000000 0.000000 0.000000 0.000000 0.000000 0.000000 10.000000 
Rope2_Seg06 0.000000 0.000000 0.000000 0.000000 0.000000 0.000000 10.000000 
Rope2_Seg07 0.000000 0.000000 0.000000 0.000000 0.000000 0.000000 10.000000 
Rope2_Seg09 0.000000 0.000000 0.000000 0.000000 0.000000 0.000000 10.000000 
R_mid_hand01 0.000000 0.000000 0.000000 0.000000 0.000000 0.000000 10.000000 
R_mid_hand02 0.000000 0.000000 0.000000 0.000000 0.000000 0.000000 10.000000 
R_mid_hand03 0.000000 0.000000 0.000000 0.000000 0.000000 0.000000 10.000000 
spine02 0.000000 0.000000 0.000000 0.000000 0.000000 0.000000 10.000000 
spine03 0.000000 0.000000 0.000000 0.000000 0.000000 0.000000 10.000000 
pelvis 0.000000 0.000000 0.000000 0.000000 0.000000 0.000000 10.000000 
null_rope03_connect 0.000000 0.000000 0.000000 0.000000 0.000000 0.000000 10.000000 
null_rope04_connect 0.000000 0.000000 0.000000 0.000000 0.000000 0.000000 10.000000 
Rope3_Seg01 0.000000 0.000000 0.000000 0.000000 0.000000 0.000000 10.000000 
Rope3_Seg02 0.000000 0.000000 0.000000 0.000000 0.000000 0.000000 10.000000 
Rope3_Seg03 0.000000 0.000000 0.000000 0.000000 0.000000 0.000000 10.000000 
Rope3_Seg04 0.000000 0.000000 0.000000 0.000000 0.000000 0.000000 10.000000 
Rope3_Seg05 0.000000 0.000000 0.000000 0.000000 0.000000 0.000000 10.000000 
Rope3_Seg06 0.000000 0.000000 0.000000 0.000000 0.000000 0.000000 10.000000 
Rope3_Seg07 0.000000 0.000000 0.000000 0.000000 0.000000 0.000000 10.000000 
Rope3_Seg08 0.000000 0.000000 0.000000 0.000000 0.000000 0.000000 10.000000 
Rope3_Seg09 0.000000 0.000000 0.000000 0.000000 0.000000 0.000000 10.000000 
R_rear_hand01 0.000000 0.000000 0.000000 0.000000 0.000000 0.000000 10.000000 
R_rear_hand02 0.000000 0.000000 0.000000 0.000000 0.000000 0.000000 10.000000 
R_rear_hand03 0.000000 0.000000 0.000000 0.000000 0.000000 0.000000 10.000000 
Rope4_Seg01 0.000000 0.000000 0.000000 0.000000 0.000000 0.000000 10.000000 
Rope4_Seg02 0.000000 0.000000 0.000000 0.000000 0.000000 0.000000 10.000000 
Rope4_Seg03 0.000000 0.000000 0.000000 0.000000 0.000000 0.000000 10.000000 
Rope4_Seg04 0.000000 0.000000 0.000000 0.000000 0.000000 0.000000 10.000000 
Rope4_Seg05 0.000000 0.000000 0.000000 0.000000 0.000000 0.000000 10.000000 
Rope4_Seg06 0.000000 0.000000 0.000000 0.000000 0.000000 0.000000 10.000000 
Rope4_Seg07 0.000000 0.000000 0.000000 0.000000 0.000000 0.000000 10.000000 
Rope4_Seg08 0.000000 0.000000 0.000000 0.000000 0.000000 0.000000 10.000000 
Rope4_Seg09 0.000000 0.000000 0.000000 0.000000 0.000000 0.000000 10.000000 
L_rear_hand01 0.000000 0.000000 0.000000 0.000000 0.000000 0.000000 10.000000 
L_rear_hand02 0.000000 0.000000 0.000000 0.000000 0.000000 0.000000 10.000000 
L_rear_hand03 0.000000 0.000000 0.000000 0.000000 0.000000 0.000000 10.000000 
#Beginning of Data. Separated by tabs
#Fr	Tx	Ty	Tz	Rx	Ry	Rz	SF
[MASTER]
102 -4905.589355 -1672.143188 -11.412237 0.001660 0.001660 0.001660 5182.760254
103 -4943.275879 -1707.179810 -13.355557 0.001660 0.001660 0.001660 5229.781738
[root]
102 -16.502075 -62.822109 1489.615234 -84.445038 -32.369671 -84.625839 1491.030640
103 -16.502075 -62.822109 1492.688477 -85.840401 -33.381115 -85.905884 1494.100952
[chest]
102 -84.512650 -34.090519 0.000000 -2.265400 0.611317 171.547729 91.129311
103 -84.512650 -34.090519 0.000000 -2.202749 0.609004 171.618484 91.129311
[L_mid_tent01]
102 27.299643 22.177504 -249.918213 -1.379272 36.511189 66.497528 252.381104
103 27.299644 22.177504 -249.918213 -1.379268 36.511192 66.497536 252.381104
[R_mid_tent01]
102 23.228794 24.509907 226.238495 173.895706 -30.891880 58.389252 228.744751
103 23.228794 24.509907 226.238495 173.895706 -30.891874 58.389252 228.744751
[spine01]
102 -0.361383 -0.195265 0.000000 0.001845 0.001451 13.654368 0.410763
103 -0.361383 -0.195265 0.000000 0.001845 0.001451 13.654368 0.410763
[Bip01_Neck]
102 165.484543 71.581718 0.000119 176.643677 -1.657967 43.431911 180.302734
103 165.484543 71.581718 0.000119 176.643677 -1.657967 43.431911 180.302734
[L_humerus]
102 -13.983130 -135.272980 -120.471481 156.317398 70.210068 -112.010254 181.680161
103 -13.983130 -135.272980 -120.471481 156.317398 70.210068 -112.010254 181.680161
[R_humerus]
102 -13.983309 -135.273102 125.287651 -171.866379 -54.966644 -94.233833 184.909012
103 -13.983309 -135.273102 125.287651 -172.088028 -58.169792 -93.675064 184.909012
[weapon_bone]
102 235.964890 -300.705902 0.000000 0.000000 -89.951546 -128.212341 382.234833
103 235.964890 -300.705902 0.000000 0.000000 -89.951546 -128.212341 382.234833
[Bip01_Head]
102 213.443802 185.716003 11.768205 0.545302 0.145690 -43.674816 283.173401
103 213.443848 185.715881 11.769627 1.782194 0.888366 -43.774658 283.173431
[eye_left_bone]
102 -24.626970 125.451866 -64.772606 0.000000 -90.000000 -99.840431 143.318359
103 -24.626970 125.451866 -64.772606 0.000000 -90.000000 -99.840431 143.318359
[eye_right_bone]
102 -24.626970 125.451866 64.327362 0.000000 -89.965736 80.156380 143.117676
103 -24.626970 125.451866 64.327362 0.000000 -89.965736 80.156380 143.117676
[L_forearm]
102 322.776093 0.000000 -0.000119 0.000119 -0.002344 -95.807457 322.776093
103 322.776093 0.000000 -0.000119 0.000119 -0.002344 -95.807457 322.776093
[L_front_hand]
102 241.149185 -0.042021 -3.300071 149.893951 -1.837326 -27.423067 241.171753
103 241.149185 -0.042021 -3.300071 149.893951 -1.837326 -27.423067 241.171753
[L_weapon_bone]
102 156.183838 0.000000 0.000000 0.000014 0.000007 0.000001 156.183838
103 156.183838 0.000000 0.000000 0.000014 0.000007 0.000001 156.183838
[L_front_hand01_01]
102 86.095154 20.947098 -0.655860 -0.366594 -0.477154 75.385574 88.609184
103 86.095154 20.947098 -0.655860 -0.366594 -0.477154 75.385574 88.609184
[L_front_hand02_01]
102 86.935165 -11.437475 24.513514 154.399796 -59.883835 -61.369587 91.046425
103 86.935165 -11.437475 24.513514 154.399796 -59.883835 -61.369587 91.046425
[L_front_hand03_01]
102 86.637497 -14.123976 -20.424902 -153.913849 58.118122 -62.702866 90.126129
103 86.637497 -14.123976 -20.424902 -153.913849 58.118122 -62.702866 90.126129
[L_front_hand01_02]
102 71.020905 -0.000179 0.000030 0.000334 -0.002323 -106.379684 71.020905
103 71.020905 -0.000179 0.000030 0.000334 -0.002323 -106.379684 71.020905
[L_front_hand02_02]
102 71.020927 -0.000119 0.000060 0.000334 -0.002323 -106.379684 71.020927
103 71.020927 -0.000119 0.000060 0.000334 -0.002323 -106.379684 71.020927
[L_front_hand03_02]
102 71.020905 -0.000060 0.000060 0.000334 -0.002323 -106.379684 71.020905
103 71.020905 -0.000060 0.000060 0.000334 -0.002323 -106.379684 71.020905
[R_forearm]
102 322.776428 -0.000060 0.000030 0.209504 0.012586 -94.339050 322.776428
103 322.776428 -0.000060 0.000030 0.209504 0.012586 -94.339050 322.776428
[R_front_hand]
102 238.847015 -0.006795 2.210259 -8.879457 -10.642941 -26.315098 238.857239
103 238.847015 -0.006795 2.210259 -8.879457 -10.642941 -26.315098 238.857239
[R_weapon_bone]
102 155.664093 0.002503 -0.000030 0.003487 0.001180 -90.988930 155.664078
103 155.664093 0.002503 -0.000030 0.003487 0.001180 -90.988930 155.664078
[R_front_hand01_01]
102 87.624611 14.231146 22.918642 -154.633499 -59.950619 61.746044 91.683487
103 87.624611 14.231146 22.918642 -154.633484 -59.950619 61.746037 91.683487
[R_front_hand02_01]
102 89.356956 14.367283 -19.491137 154.602661 58.302849 63.744389 92.579636
103 89.356956 14.367283 -19.491137 154.602661 58.302849 63.744389 92.579636
[R_front_hand03_01]
102 87.286232 -22.307278 -0.143439 0.162155 -0.423168 -75.767921 90.091743
103 87.286232 -22.307278 -0.143439 0.162155 -0.423168 -75.767906 90.091743
[R_front_hand01_02]
102 71.020905 0.000060 0.000119 0.002323 -0.000334 106.381714 71.020905
103 71.020905 0.000060 0.000119 0.002323 -0.000334 106.381714 71.020905
[R_front_hand02_02]
102 71.020844 -0.000030 -0.000119 0.002323 -0.000334 106.381714 71.020836
103 71.020844 -0.000030 -0.000119 0.002323 -0.000334 106.381714 71.020836
[R_front_hand03_02]
102 71.020905 0.000000 0.000030 0.002323 -0.000334 106.381714 71.020905
103 71.020905 0.000000 0.000030 0.002323 -0.000334 106.381714 71.020905
[null_rope01_connect]
102 328.732483 0.000000 -0.000238 -128.918777 -62.939648 -175.496719 328.732483
103 328.732483 0.000000 -0.000238 -127.063065 -60.668133 -176.345764 328.732483
[Rope1_Seg01]
102 0.000000 0.000000 0.000000 133.870071 24.939333 -146.091263 0.000000
103 0.000000 0.000000 0.000000 133.799484 25.110220 -147.774994 0.000000
[Rope1_Seg02]
102 139.999863 -0.000179 0.000000 18.580458 -42.992352 9.345767 139.999863
103 139.999863 -0.000179 0.000000 19.521809 -43.025833 7.584321 139.999863
[Rope1_Seg03]
102 139.999924 0.000060 -0.000060 0.823522 -25.191362 10.093601 139.999924
103 139.999924 0.000060 -0.000060 0.315223 -25.750933 10.924990 139.999924
[Rope1_Seg04]
102 139.999924 -0.000060 -0.000119 -0.556057 -7.284774 11.927469 139.999924
103 139.999924 -0.000060 -0.000119 -0.768107 -8.797645 11.523575 139.999924
[Rope1_Seg05]
102 139.999832 0.000119 -0.000060 3.177441 -2.451489 17.561316 139.999832
103 139.999832 0.000119 -0.000060 2.169843 -4.968504 15.947518 139.999832
[Rope1_Seg06]
102 139.999954 0.000119 -0.000060 3.821617 -1.357408 11.054143 139.999954
103 139.999954 0.000119 -0.000060 2.670587 -3.116139 9.759730 139.999954
[Rope1_Seg07]
102 139.999985 0.000060 0.000000 2.641723 -0.763814 5.913349 139.999985
103 139.999985 0.000060 0.000000 1.976349 -1.800535 5.434244 139.999985
[Rope1_Seg09]
102 121.602913 0.000119 -0.000089 -89.793175 -1.359789 0.847147 121.602913
103 121.602913 0.000119 -0.000089 -89.793175 -1.359789 0.847147 121.602913
[L_mid_hand01]
102 103.859421 1.038730 8.195221 130.544373 -67.584534 -38.866943 104.187431
103 103.859421 1.038730 8.195221 130.544373 -67.584534 -38.866943 104.187431
[L_mid_hand02]
102 105.572853 -4.139662 -10.864139 -168.923172 43.409309 -73.498886 106.211075
103 105.572853 -4.139662 -10.864139 -168.923172 43.409309 -73.498886 106.211075
[L_mid_hand03]
102 104.641464 17.579376 -3.913581 -6.012627 17.808174 74.893669 106.179977
103 104.641464 17.579376 -3.913581 -6.012627 17.808174 74.893669 106.179977
[null_rope02_connect]
102 328.732849 0.000179 -0.000119 -107.527168 49.256134 6.311869 328.732849
103 328.732849 0.000179 -0.000119 -105.881599 51.519073 7.011833 328.732849
[Rope2_Seg01]
102 0.000292 0.000297 0.000000 -27.785217 10.624210 -31.152889 0.000416
103 0.000294 0.000298 0.000000 -36.872261 14.437082 -33.823864 0.000419
[Rope2_Seg02]
102 139.999741 -0.000060 -0.000119 -34.903584 -8.519567 29.074974 139.999756
103 139.999741 -0.000060 -0.000119 -36.462719 -11.131295 29.583885 139.999756
[Rope2_Seg03]
102 140.000107 0.000030 0.000000 -5.826996 -24.736301 16.354830 140.000107
103 140.000107 0.000030 0.000000 -4.537692 -26.521637 14.921221 140.000107
[Rope2_Seg04]
102 139.999802 0.000000 -0.000060 -2.856227 -10.068076 13.043443 139.999802
103 139.999802 0.000000 -0.000060 -2.722773 -10.833068 12.297768 139.999802
[Rope2_Seg05]
102 139.999985 -0.000060 0.000119 -0.639972 -1.129910 13.019229 139.999985
103 139.999985 -0.000060 0.000119 -0.717591 -2.694049 11.724194 139.999985
[Rope2_Seg06]
102 139.999893 -0.000030 -0.000119 0.148871 -1.364619 6.770049 139.999893
103 139.999893 -0.000030 -0.000119 0.105458 -2.301724 5.923445 139.999893
[Rope2_Seg07]
102 139.999893 0.000060 -0.000060 0.236486 -1.129447 3.788625 139.999893
103 139.999893 0.000060 -0.000060 0.215982 -1.598056 3.436791 139.999893
[Rope2_Seg09]
102 121.338966 0.000089 -0.000060 33.793236 -1.359788 -0.847141 121.338966
103 121.338966 0.000089 -0.000060 33.793236 -1.359788 -0.847141 121.338966
[R_mid_hand01]
102 104.680779 11.144459 -10.335981 -16.212063 45.237247 70.462852 105.778534
103 104.680779 11.144459 -10.335981 -16.212063 45.237247 70.462852 105.778534
[R_mid_hand02]
102 104.070427 2.443552 8.231699 49.067368 -67.749771 39.286453 104.424065
103 104.070427 2.443552 8.231699 49.067368 -67.749771 39.286453 104.424065
[R_mid_hand03]
102 106.028137 -11.221827 -5.996406 -177.101105 15.551026 -76.585571 106.788818
103 106.028137 -11.221827 -5.996406 -177.101105 15.551026 -76.585571 106.788818
[spine02]
102 129.756927 0.001550 0.000119 -1.023899 -3.926965 6.770993 129.756927
103 129.756927 0.001550 0.000119 -1.023899 -3.926965 6.770993 129.756927
[spine03]
102 78.613747 0.087424 -4.898692 1.040681 4.146420 4.212376 78.766273
103 78.613739 0.087426 -4.898690 1.040680 4.146419 4.212375 78.766258
[pelvis]
102 169.435242 0.051022 0.000000 0.019518 -0.190233 -10.721436 169.435257
103 169.435242 0.051022 0.000000 0.019518 -0.190233 -10.721436 169.435257
[null_rope03_connect]
102 -1.257226 -2.466202 137.391083 61.520599 -80.685272 46.811020 137.418976
103 -1.257226 -2.466202 137.391083 62.637779 -82.991371 46.798225 137.418976
[null_rope04_connect]
102 -1.259640 -2.480268 -137.844437 61.520599 -80.685272 46.811020 137.872513
103 -1.259640 -2.480268 -137.844437 62.637779 -82.991371 46.798225 137.872513
[Rope3_Seg01]
102 -0.000001 0.000140 -0.000153 -145.791489 -32.575790 -52.605453 0.000207
103 -0.000001 0.000142 -0.000153 -145.360229 -32.810139 -53.665909 0.000208
[Rope3_Seg02]
102 139.999924 -0.000119 0.000060 -14.279346 -6.153201 -32.105263 139.999924
103 139.999924 -0.000119 0.000060 -12.106565 -7.341078 -31.882746 139.999924
[Rope3_Seg03]
102 139.999924 -0.000119 0.000119 -94.103622 4.215666 -43.721977 139.999924
103 139.999924 -0.000119 0.000119 -98.198357 1.529654 -44.198963 139.999924
[Rope3_Seg04]
102 139.999924 0.000119 0.000000 -17.520147 17.796089 2.333272 139.999924
103 139.999924 0.000119 0.000000 -18.150518 17.831501 2.687550 139.999924
[Rope3_Seg05]
102 139.999924 -0.000238 0.000060 -8.724183 19.224171 6.475644 139.999924
103 139.999924 -0.000238 0.000060 -8.852668 18.358873 6.316934 139.999924
[Rope3_Seg06]
102 139.999893 -0.000119 -0.000060 -1.828482 22.956015 12.213192 139.999893
103 139.999893 -0.000119 -0.000060 -2.382640 21.802399 11.635379 139.999893
[Rope3_Seg07]
102 139.999771 0.000060 -0.000119 0.880518 11.288343 7.220155 139.999771
103 139.999771 0.000060 -0.000119 0.604612 11.056674 7.299660 139.999771
[Rope3_Seg08]
102 139.999985 -0.000060 0.000000 1.011027 5.909719 3.714329 139.999985
103 139.999985 -0.000060 0.000000 0.853839 5.881745 3.854577 139.999985
[Rope3_Seg09]
102 90.185997 -0.000179 -0.000060 89.793228 -1.359877 -0.847183 90.185997
103 90.185997 -0.000179 -0.000060 89.793228 -1.359877 -0.847183 90.185997
[R_rear_hand01]
102 103.366196 -6.073594 -10.757982 -177.714203 24.565960 -73.910950 104.101845
103 103.366196 -6.073594 -10.757982 -177.714203 24.565960 -73.910950 104.101845
[R_rear_hand02]
102 100.509819 12.039542 -7.992327 -12.874829 36.868488 72.167213 101.543350
103 100.509819 12.039542 -7.992327 -12.874829 36.868488 72.167213 101.543350
[R_rear_hand03]
102 101.539970 5.215704 5.435467 71.484581 -71.816628 21.513813 101.819031
103 101.539970 5.215704 5.435467 71.484581 -71.816628 21.513813 101.819031
[Rope4_Seg01]
102 0.000000 0.000144 0.000000 83.300644 -44.386292 -142.945908 0.000144
103 0.000000 0.000145 0.000000 86.142296 -45.976540 -144.676666 0.000145
[Rope4_Seg02]
102 139.999985 0.000060 0.000119 27.962570 -28.669436 12.010186 139.999985
103 139.999985 0.000060 0.000119 29.232748 -28.822906 13.354963 139.999985
[Rope4_Seg03]
102 139.999924 0.000000 -0.000238 33.812881 -13.654198 24.823586 139.999924
103 139.999924 0.000000 -0.000238 32.934254 -12.649928 26.265093 139.999924
[Rope4_Seg04]
102 139.999985 0.000000 0.000119 19.418041 -5.023847 20.831364 139.999985
103 139.999985 0.000000 0.000119 17.591511 -3.722458 21.038998 139.999985
[Rope4_Seg05]
102 139.999802 -0.000060 -0.000119 12.961822 -2.685380 18.607155 139.999802
103 139.999802 -0.000060 -0.000119 12.263785 -2.256457 20.357632 139.999802
[Rope4_Seg06]
102 139.999924 0.000000 0.000060 4.350418 1.399762 8.382384 139.999924
103 139.999924 0.000000 0.000060 4.115342 1.716297 9.477734 139.999924
[Rope4_Seg07]
102 139.999802 0.000000 0.000000 2.120557 1.293710 4.820450 139.999802
103 139.999802 0.000000 0.000000 1.893807 1.492638 5.360834 139.999802
[Rope4_Seg08]
102 139.999924 0.000000 0.000119 -0.452640 0.853612 2.768217 139.999924
103 139.999924 0.000000 0.000119 -0.610995 0.958004 3.058417 139.999924
[Rope4_Seg09]
102 90.185791 0.000060 0.000060 -135.617828 2.228885 0.850567 90.185791
103 90.185791 0.000060 0.000060 -135.617828 2.228885 0.850567 90.185791
[L_rear_hand01]
102 101.696655 -8.392275 -7.654577 -12.874829 -36.868488 107.832764 102.329041
103 101.696655 -8.392275 -7.654577 -12.874829 -36.868488 107.832764 102.329041
[L_rear_hand02]
102 102.726799 -1.568258 5.773216 71.484581 71.816628 158.486160 102.900848
103 102.726799 -1.568258 5.773216 71.484581 71.816628 158.486160 102.900848
[L_rear_hand03]
102 104.552910 9.721220 -10.420293 -177.714203 -24.565960 -106.089035 105.519653
103 104.552910 9.721220 -10.420293 -177.714203 -24.565960 -106.089035 105.519653
